<svg width="28" height="26" viewBox="0 0 28 26" fill="none" xmlns="http://www.w3.org/2000/svg">
<path d="M11.5 5.57143H16.5C16.5 4.95575 16.2366 4.36529 15.7678 3.92994C15.2989 3.49458 14.663 3.25 14 3.25C13.337 3.25 12.7011 3.49458 12.2322 3.92994C11.7634 4.36529 11.5 4.95575 11.5 5.57143ZM10 5.57143C10 4.58634 10.4214 3.6416 11.1716 2.94504C11.9217 2.24847 12.9391 1.85715 14 1.85715C15.0609 1.85715 16.0783 2.24847 16.8284 2.94504C17.5786 3.6416 18 4.58634 18 5.57143H24.25C24.4489 5.57143 24.6397 5.64481 24.7803 5.77541C24.921 5.90602 25 6.08316 25 6.26786C25 6.45257 24.921 6.62971 24.7803 6.76031C24.6397 6.89092 24.4489 6.96429 24.25 6.96429H22.94L21.723 20.5242C21.6345 21.5107 21.1499 22.4302 20.3655 23.1005C19.5811 23.7707 18.554 24.1428 17.488 24.1429H10.512C9.44599 24.1428 8.41894 23.7707 7.6345 23.1005C6.85007 22.4302 6.36554 21.5107 6.277 20.5242L5.06 6.96429H3.75C3.55109 6.96429 3.36032 6.89092 3.21967 6.76031C3.07902 6.62971 3 6.45257 3 6.26786C3 6.08316 3.07902 5.90602 3.21967 5.77541C3.36032 5.64481 3.55109 5.57143 3.75 5.57143H10ZM12.5 10.9107C12.5 10.726 12.421 10.5489 12.2803 10.4183C12.1397 10.2877 11.9489 10.2143 11.75 10.2143C11.5511 10.2143 11.3603 10.2877 11.2197 10.4183C11.079 10.5489 11 10.726 11 10.9107V18.8036C11 18.9883 11.079 19.1654 11.2197 19.296C11.3603 19.4266 11.5511 19.5 11.75 19.5C11.9489 19.5 12.1397 19.4266 12.2803 19.296C12.421 19.1654 12.5 18.9883 12.5 18.8036V10.9107ZM16.25 10.2143C16.0511 10.2143 15.8603 10.2877 15.7197 10.4183C15.579 10.5489 15.5 10.726 15.5 10.9107V18.8036C15.5 18.9883 15.579 19.1654 15.7197 19.296C15.8603 19.4266 16.0511 19.5 16.25 19.5C16.4489 19.5 16.6397 19.4266 16.7803 19.296C16.921 19.1654 17 18.9883 17 18.8036V10.9107C17 10.726 16.921 10.5489 16.7803 10.4183C16.6397 10.2877 16.4489 10.2143 16.25 10.2143Z" fill="#8B8B8B"/>
</svg>
