<svg width="20" height="22" viewBox="0 0 20 22" fill="none" xmlns="http://www.w3.org/2000/svg">
<path d="M4.75 1V3.5M15.25 1V3.5M1 18.5V6C1 5.33696 1.23705 4.70107 1.65901 4.23223C2.08097 3.76339 2.65326 3.5 3.25 3.5H16.75C17.3467 3.5 17.919 3.76339 18.341 4.23223C18.7629 4.70107 19 5.33696 19 6V18.5M1 18.5C1 19.163 1.23705 19.7989 1.65901 20.2678C2.08097 20.7366 2.65326 21 3.25 21H16.75C17.3467 21 17.919 20.7366 18.341 20.2678C18.7629 19.7989 19 19.163 19 18.5M1 18.5V10.1667C1 9.50363 1.23705 8.86774 1.65901 8.3989C2.08097 7.93006 2.65326 7.66667 3.25 7.66667H16.75C17.3467 7.66667 17.919 7.93006 18.341 8.3989C18.7629 8.86774 19 9.50363 19 10.1667V18.5" stroke="#4C4D4F" stroke-linecap="round" stroke-linejoin="round"/>
</svg>
